<?xml version="1.0" encoding="utf-8"?>
<!-- Generator: Adobe Illustrator 22.0.0, SVG Export Plug-In . SVG Version: 6.00 Build 0)  -->
<svg version="1.1" xmlns="http://www.w3.org/2000/svg" xmlns:xlink="http://www.w3.org/1999/xlink" x="0px" y="0px"
	 viewBox="0 0 3717.7 2500" style="enable-background:new 0 0 3717.7 2500;" xml:space="preserve">
<style type="text/css">
	.st0{fill:#0ACF83;}
	.st1{fill:#A259FF;}
	.st2{fill:#F24E1E;}
	.st3{fill:#FF7262;}
	.st4{fill:#1ABCFE;}
	.st5{fill:url(#SVGID_1_);}
</style>
<g id="Layer_1">
	<title>Figma.logo</title>
	<desc>Created using Figma</desc>
	<path id="path0_fill" class="st0" d="M416.8,2500c230,0,416.7-186.7,416.7-416.7v-416.7H416.8c-230,0-416.7,186.7-416.7,416.7
		S186.8,2500,416.8,2500z"/>
	<path id="path1_fill" class="st1" d="M0.2,1250c0-230,186.7-416.7,416.7-416.7h416.7v833.3H416.8C186.8,1666.7,0.2,1480,0.2,1250z"
		/>
	<path id="path1_fill_1_" class="st2" d="M0.2,416.7C0.2,186.7,186.8,0,416.8,0h416.7v833.3H416.8C186.8,833.3,0.2,646.7,0.2,416.7z
		"/>
	<path id="path2_fill" class="st3" d="M833.5,0h416.7c230,0,416.7,186.7,416.7,416.7s-186.7,416.7-416.7,416.7H833.5V0z"/>
	<path id="path3_fill" class="st4" d="M1666.8,1250c0,230-186.7,416.7-416.7,416.7S833.5,1480,833.5,1250s186.7-416.7,416.7-416.7
		S1666.8,1020,1666.8,1250z"/>
</g>
<g id="Layer_2">
	<g transform="matrix(4.337,0,0,4.337,8,8.21612)">
		
			<linearGradient id="SVGID_1_" gradientUnits="userSpaceOnUse" x1="180.7653" y1="356.2347" x2="693.7768" y2="60.4443" gradientTransform="matrix(4.337 0 0 -4.337 -441.3447 1722.358)">
			<stop  offset="9.999999e-08" style="stop-color:#2298BD"/>
			<stop  offset="1" style="stop-color:#0ED7B5"/>
		</linearGradient>
		<path vector-effect="none" class="st5" d="M605.1,179c-66.6,0-108.1,33.3-124.8,99.8c25-33.3,54.1-45.8,87.4-37.4
			c19,4.7,32.6,18.5,47.6,33.8c24.5,24.8,52.8,53.6,114.6,53.6c66.6,0,108.1-33.3,124.8-99.8c-25,33.3-54.1,45.8-87.4,37.4
			c-19-4.7-32.6-18.5-47.6-33.8C695.3,207.7,667,179,605.1,179 M480.4,328.7c-66.6,0-108.1,33.3-124.8,99.8
			c25-33.3,54.1-45.8,87.4-37.4c19,4.7,32.6,18.5,47.6,33.8c24.5,24.8,52.8,53.6,114.6,53.6c66.6,0,108.1-33.3,124.8-99.8
			c-25,33.3-54.1,45.8-87.4,37.4c-19-4.7-32.6-18.5-47.6-33.8C570.5,357.5,542.2,328.7,480.4,328.7"/>
	</g>
</g>
</svg>
